<svg xmlns="http://www.w3.org/2000/svg" viewBox="0 0 288 288"><defs><style>.a{fill:#cf9d6c;}</style></defs><path class="a" d="M221.5,45.78c.66.2,1.31.42,2,.6A19.15,19.15,0,0,1,238,66.18C237.61,75,230.79,82.53,221.56,84a5.89,5.89,0,0,0-5.29,4.7,12.73,12.73,0,0,1-2.85,5.08c-10.34,10.81-20.8,21.5-31.2,32.25a4.5,4.5,0,0,1-3.53,1.51q-20.33-.06-40.66,0c-1.33,0-2.62,0-3.23-1.49s.26-2.51,1.27-3.49c17.9-17.35,35.76-34.75,53.75-52a18.12,18.12,0,0,1,5.93-3.23c2.17-.87,3.53-2.15,3.89-4.49,1.39-9,7-14.92,15.81-16.74a3.23,3.23,0,0,0,.68-.32Z"/><path class="a" d="M102,212.76a91.45,91.45,0,0,1-45.74-66.69c-1.11-7.38,4.57-13.6,12.27-13.61q41.63,0,83.24,0,36.06,0,72.12,0c8.85,0,14.12,6.14,12.62,14.92-4.82,28.19-19.59,49.62-44,64.5-.38.23-.76.46-1.13.71-.1.06-.15.2-.29.4,2.89,4.54,5.87,9.07,8.7,13.7,3.31,5.39,1.38,12.08-4.21,14.56a11.33,11.33,0,0,1-4.45.92q-44.68.08-89.38,0c-8.31,0-13-8.4-8.64-15.5C96,222.05,99,217.52,102,212.76Zm41.7-31.6v8.71c0,1.79-.06,3.58,0,5.36a2.72,2.72,0,0,0,2.65,2.78,2.79,2.79,0,0,0,2.87-2.74,22.06,22.06,0,0,0,0-2.3V181.16H162.5c2.29,0,3.62-1.06,3.61-2.8s-1.33-2.71-3.66-2.74H149.27v-2.3c0-3.71,0-7.41,0-11.12,0-2.15-1.09-3.43-2.78-3.43s-2.77,1.28-2.78,3.43c0,3.77,0,7.54,0,11.31v2.11h-2.43c-3.64,0-7.29,0-10.93,0-2.17,0-3.47,1.05-3.49,2.71s1.32,2.79,3.59,2.82h13.26Z"/><path class="a" d="M93.93,115.17A22.28,22.28,0,0,1,92,99.67c2.78-12.82,11-20.86,22.9-25.47,9.71-3.77,19.82-4.06,30-2.73,2.27.3,3.16,2.23,1.77,4-5.93,7.74-9.36,16.57-12.12,25.84-4.2,14.07-19.41,22.53-33.66,19.14-1-.24-1.91-.65-3.34-1.14,3-3.35,5.55-6.57,8.44-9.5,4.54-4.59,9.27-9,13.92-13.46.59-.58,1.52-1.1,1.67-1.78a5.13,5.13,0,0,0-.28-3.3c-.65-1.14-2-1.25-3.24-.58a7.26,7.26,0,0,0-1.2,1c-7.88,7.2-15.72,14.45-22.35,22.87A7,7,0,0,1,93.93,115.17Z"/><path class="a" d="M85.13,116.47,71.32,102c-.31-.32-.63-.63-1-.92-1.4-1.2-3-1.22-4.09,0s-1,2.61.2,3.93c.87.94,1.85,1.77,2.72,2.7q5,5.4,10,10.84a23.75,23.75,0,0,1,1.48,2,17.07,17.07,0,0,1-10.28-.1,18.14,18.14,0,0,1-12.64-12.77,45.75,45.75,0,0,0-7.06-15c-1.33-1.77-.67-3.85,1.4-4.12,9.38-1.2,18.47-.51,26.21,5.64,6.3,5,9.29,11.55,7.78,19.75a11.47,11.47,0,0,1-.49,1.64A7.14,7.14,0,0,1,85.13,116.47Z"/></svg>