<svg xmlns="http://www.w3.org/2000/svg" viewBox="0 0 288 288"><defs><style>.a{fill:#cf9d6c;}</style></defs><path class="a" d="M38,197.31a11.65,11.65,0,0,0,.42-1.12,16.42,16.42,0,0,1,15.35-12.8c4.53-.22,9.09-.09,13.63,0a2.06,2.06,0,0,1,1.49.75c2.91,4.56,5.75,9.17,8.69,13.91-2,.42-4.07,1-6.2,1.32-8.88,1.44-14.84,6.75-19.12,14.28-.74,1.31-1.27,2.73-2,4.28a16.35,16.35,0,0,1-11.44-10.81c-.31-.9-.55-1.82-.83-2.73Z"/><path class="a" d="M250,204.34c-1,3.55-2.17,7-5.11,9.44a84,84,0,0,1-7.06,4.68c-4.7-13.17-14.48-19-27.33-20.8,2.36-3.59,4.84-6.61,6.45-10,1.68-3.58,3.9-4.85,7.78-4.39,3.47.42,7.05-.1,10.52.29,7.4.83,12.59,5.66,14.36,12.87a6.19,6.19,0,0,0,.39.92Z"/><path class="a" d="M181.06,126.94l-13.38,13.93c-7.9-12.55-15.69-24.94-23.68-37.65l-23.66,37.64-13.47-14c-1.39,5-2.71,9.62-4,14.28-2.58,9.28-5.41,18.49-7.65,27.85-2.51,10.5-1.19,20.79,3.2,30.66.14.31.25.64.36,1,0,0,0,.13-.22.71-3.24-3.26-6.56-6.13-9.32-9.46C72.76,172,67.67,149.55,74.29,124.6c2.93-11,6.15-22,9.24-33,.13-.46.3-.9.55-1.66l18.16,18.89,20.87-33.19L144,42.42l41.76,66.43c6.1-6.34,12.05-12.52,18.21-18.94.82,2.89,1.58,5.52,2.31,8.15,2.9,10.54,6.48,21,8.56,31.65,5.44,28-3.19,51.56-24.48,70.52-.31.28-.66.49-1.11.82,1.09-3.23,2.31-6.28,3.14-9.44a48.09,48.09,0,0,0-.25-25.5q-5.26-18.88-10.56-37.75C181.47,128,181.3,127.58,181.06,126.94Z"/><path class="a" d="M144,126.56l21.38,34,9.82-9c1.73,6.22,3.58,12.54,5.23,18.91a36.09,36.09,0,0,1-1.25,21.91c-5.89,16-21.48,25.77-38.91,24.29C123.86,215.3,110,202.48,107.07,186a37,37,0,0,1,.68-16.36c1.53-5.64,3.16-11.25,4.75-16.87a11,11,0,0,1,.39-1.09l9.76,8.8Z"/><path class="a" d="M127.33,227.9c-.57.29-1,.54-1.37.7-13.82,5.3-27.62,10.66-41.49,15.84a16.38,16.38,0,0,1-19.55-6.13c-4.89-7.2-4.9-16,.41-21.82a22.62,22.62,0,0,1,7-4.89,129.8,129.8,0,0,1,12.13-4.68,2.76,2.76,0,0,1,2.3.37,83.73,83.73,0,0,0,39.87,20.25A3.27,3.27,0,0,1,127.33,227.9Z"/><path class="a" d="M160.83,228c4.7-1.45,9.34-2.66,13.83-4.32a79.63,79.63,0,0,0,26.08-16A2.62,2.62,0,0,1,204,207c4,1.67,8.11,3.09,12.12,4.74,9.1,3.74,12.75,12.81,9.08,22.37-3.59,9.36-12.54,13.75-21.67,10.34-13.93-5.2-27.79-10.62-41.67-16C161.48,228.34,161.16,228.14,160.83,228Z"/></svg>