<svg xmlns="http://www.w3.org/2000/svg" viewBox="0 0 288 288"><defs><style>.a{fill:#cf9d6c;}</style></defs><path class="a" d="M252,202.63c-2.55,5.83-7.64,8-13.39,8.81a20,20,0,0,1-16.88-5.31c-2.7-2.43-5.8-2.32-8.55,0-8.71,7.41-19.27,7.46-27.94.15-3-2.56-5.94-2.71-8.87-.05a20.59,20.59,0,0,1-24.22,2.68,37.11,37.11,0,0,1-3.89-2.87c-2.94-2.28-5.83-2.31-8.58.13a20.39,20.39,0,0,1-16.48,5.32A19.53,19.53,0,0,1,112.53,207c-4.07-3.43-6.37-3.45-10.52,0-7,5.81-15.37,6.59-23.29,2.09a31.65,31.65,0,0,1-3.87-2.89c-3-2.42-5.8-2.45-8.71.12-6.06,5.35-13,6.78-20.57,4.27a23,23,0,0,1-7.3-4.39,6.62,6.62,0,0,1-.38-9.63,6.86,6.86,0,0,1,9.51-.69c3.92,3,6,2.91,9.9-.26,8.25-6.79,18-6.84,26.35-.13,4.31,3.49,6.38,3.41,10.7-.15,5.44-4.5,11.67-5.51,18.43-3.93.48.12.94.27,1.42.38a2.8,2.8,0,0,0,.63-.07l25.3-54.54c-1.29.64-2.1,1-2.84,1.41-3.53,2.13-6.77,1.68-9.9-.89-2.65-2.18-5.4-4.24-8.41-6.59-2.85,7.58-5.61,14.94-8.5,22.62l13.4,1.86c-1,2.22-2,4.31-2.95,6.39q-4.73,10.23-9.46,20.45c-.42.89-.71,1.66-2.08,1.55a26.31,26.31,0,0,0-19.76,6.18c-.21.17-.46.28-.51-.09-3.62-1.78-7.13-3.87-10.89-5.27-4.35-1.61-9-1.45-13.52-.52a3.88,3.88,0,0,1-2.7-.36c-7.39-5.17-13.87-11.23-18.16-19.31-4.73-8.89-5.7-18.1-2.18-27.64,1.85-5,6.21-6.68,10.81-4a153.54,153.54,0,0,0,28.8,13.33l2,.68c1.72-4.59,3.42-9.1,5.11-13.62,2.17-5.78,4.23-11.61,6.52-17.34,3.93-9.82,16.53-12.55,23.22-4.65,4.22,5,9.58,8.35,14.41,12.46a2.61,2.61,0,0,0,2.33.19q7-3.51,13.77-7.29a5.2,5.2,0,0,0,2-2.24c3.6-7.61,7.12-15.26,10.66-22.9.17-.38.33-.78.52-1.15,1.14-2.23,2.9-3.06,4.76-2.24s2.6,2.85,1.53,5.19q-4.83,10.53-9.73,21c-.14.31-.25.63.24.73.93,1.87,2.26,3.66,2.7,5.64.63,2.77-.72,5-3.1,6.63a6.06,6.06,0,0,1-1.29.72c-5.08,1.73-7.68,5.51-9.83,10.31-8.28,18.51-16.92,36.87-25.53,55.23-.93,2-.31,2.77,1.27,3.58a5.94,5.94,0,0,0,7-.95,20.49,20.49,0,0,1,16.66-5.46,19.4,19.4,0,0,1,11,4.84c3.49,3.05,6.07,3.09,9.68.12,7.51-6.17,15.73-7.05,23.81-2.45a35.45,35.45,0,0,1,4,3c2.78,2.18,5.83,2.25,8.39-.19a20.78,20.78,0,0,1,28.14,0,6,6,0,0,0,8.07.5c5.52-4,9.49-3.08,12.4,3Z"/><path class="a" d="M199.16,190.45c-12.29-9.45-24.55-9.39-36.89.05-8.7-7.2-18.45-8.41-29.29-4.56.33-.85.51-1.41.75-1.94,4-8.6,8-17.17,11.92-25.8a2.88,2.88,0,0,1,3-1.94,191.84,191.84,0,0,0,45.6-6.18,155.22,155.22,0,0,0,39.81-16.29,14.58,14.58,0,0,1,5.21-2c3.14-.41,5.62,1.4,6.84,4.49,3.71,9.39,3,18.6-1.5,27.5-4.32,8.56-11.09,14.95-18.88,20.32a3.1,3.1,0,0,1-2.14.36c-9-1.8-17,0-24.08,5.85A1.69,1.69,0,0,1,199.16,190.45Z"/><path class="a" d="M110.63,91.6a15.61,15.61,0,0,1,31.22.06,15.61,15.61,0,1,1-31.22-.06Z"/></svg>