<svg xmlns="http://www.w3.org/2000/svg" viewBox="0 0 288 288"><defs><style>.a{fill:#cf9d6c;}</style></defs><path class="a" d="M135.77,251.18c-7.63,8.21-17.26,2.3-19.34-6.27-5.54-.88-9.11-4-11-9.29a2.3,2.3,0,0,0-1.36-1.32c-5.1-1.15-8.25-4.31-10-9.15a2.57,2.57,0,0,0-1.62-1.38c-8-1.84-11.58-8.63-8.42-16.43-4.29-3.33-8.17-7.05-14.13-8C61.69,198,53.51,195.88,45.3,194a12.62,12.62,0,0,1-10.24-12.19c-.57-12.68-.86-25.37-1.58-38C32.87,133,42.8,127.1,50.54,130.16a4.2,4.2,0,0,0,1.06,0c0-3.09,0-6.16,0-9.23-.05-5.65-.18-11.3,1.95-16.71,3.91-9.9,10.85-16.56,21-19.8.46-.15.92-.33,1.66-.59-8.57-6.49-13-15-12.62-25.59a28,28,0,0,1,9.53-20.33,29.44,29.44,0,0,1,41,1.36c10.8,11.33,12.08,31.92-4.35,44.55l6.58,2.46A16.74,16.74,0,0,1,131,80.13c6,.47,10,4.42,14.17,8.9,1.23-1.36,2.25-2.63,3.41-3.74,6.57-6.27,15.79-6.56,22.68-.65,1,.86,1.78,1.2,3,.58a33.66,33.66,0,0,1,3.67-1.36C161,71,163,49.27,174.47,38.4a29.58,29.58,0,0,1,41.73,1.05c10.88,11.37,11.67,32.05-4.5,44.37C232.18,90.53,237.91,106,236,125.43a43.77,43.77,0,0,1,6.53,0,12.55,12.55,0,0,1,10.55,12.13q.76,22.83,1.43,45.67c.22,8-3.13,12.39-10.82,14.39-14.32,3.73-28.65,7.4-42.95,11.21a8,8,0,0,0-3.79,2.34c-9.37,10.95-18.55,22.06-28,33a96.69,96.69,0,0,1-10.3,10.14c-4.9,4.18-10.4,4.42-16,1.24C140.4,254.22,138.17,252.7,135.77,251.18Zm5.38-101.62c-3.68-.62-7.66-1.48-11.69-1.95-12.86-1.51-25.28-.21-37,5.93a6,6,0,0,1-4.56.05C75.31,148,62.78,142.14,50.19,136.46a10.24,10.24,0,0,0-4.69-1.06c-3.82.26-6.23,3.33-6.08,7.53.44,12.36,1,24.71,1.44,37.07.2,5.31,1.81,7.41,6.92,8.54,9.18,2,18.38,4,27.54,6.1a15.43,15.43,0,0,1,5,2.31c2.75,1.88,5.31,4,8,6.12.72-.69,1.32-1.23,1.89-1.81,4.18-4.16,8.32-8.36,12.52-12.49,4.47-4.42,9.93-4.46,14.27.13,1.84,1.94,3.13,4.4,4.94,7,5.42.84,8.85,4.67,10.54,10.3,6.16,1,9.62,4.77,11.32,10.47.66.14,1.31.23,1.94.4a12.27,12.27,0,0,1,8.69,8.26c1.35,4-.2,7.34-3.16,10.16-2.08,2-4,4.08-6.1,6.06-1.75,1.66-3.61,3.22-5.5,4.9,8,5.89,12.71,5.66,19.4-.47a45.59,45.59,0,0,0,4.15-4.19c9.81-11.53,19.58-23.1,29.49-34.82-1-.92-1.92-1.8-2.86-2.7q-11.43-11-22.86-21.94c-6-5.75-10.51-6.46-18-2.85-2.72,1.31-5.38,2.77-8.17,3.93-5.12,2.12-10.39,3.51-16,2.31-7.19-1.52-10.89-7.9-8.59-14.88a17,17,0,0,1,6.52-8.71C128.78,157.86,135,153.77,141.15,149.56Zm107.52,12.12H248q-.36-11.42-.74-22.83a11.7,11.7,0,0,0-.36-2.9c-1.39-4.47-6.11-6-10.58-3.5Q214,145.15,191.84,158a5.44,5.44,0,0,1-6.3,0c-8.58-5.14-17.84-7.68-27.92-6.33-12.83,1.72-23.28,8.26-32.79,16.54a11.83,11.83,0,0,0-3,4.69c-1.27,3.33.23,6.45,3.72,6.85a24.18,24.18,0,0,0,9.84-.73c4.48-1.4,8.68-3.74,13-5.71s8.75-3.52,13.22-1.37a40.5,40.5,0,0,1,9.67,6.5c8.44,7.74,16.62,15.78,24.88,23.73a2.94,2.94,0,0,0,3.2,1c14.38-3.79,28.8-7.46,43.19-11.2,4.53-1.18,6.14-3.44,6.12-8.15C248.66,176.41,248.67,169.05,248.67,161.68Zm-89.33-16.41c15.21,1.17,15.2,1.18,28.32,7a3.09,3.09,0,0,0,2.41-.23q19.4-11,38.71-22.18a3.41,3.41,0,0,0,1.44-2.44c.15-4,.18-8,0-12-.49-14-9.4-24.61-23.12-26.15-8.15-.91-16.49-.27-24.75-.08-2.18.05-4.35,1-6.73,1.56,2.78,8.55-.16,14.89-6.19,20.33-3,2.73-5.89,5.69-8.66,8.69a5.64,5.64,0,0,0-1.4,3.36c-.15,5.56-.07,11.13-.07,16.69ZM113.6,91.37c-2.41-.69-4.64-1.81-6.92-1.91-8-.36-16-.59-24-.45-11.91.22-22.85,9.37-24.5,21.2-1,7.23-.52,14.68-.59,22,0,.57.76,1.39,1.37,1.67q14.9,6.92,29.87,13.66a3.3,3.3,0,0,0,2.49,0,65.46,65.46,0,0,1,34.58-6.12c.77.07,1.55,0,2.45,0,0-7.38,0-14.49-.05-21.6a3.84,3.84,0,0,0-1.19-2.24c-2.66-2.77-5.33-5.55-8.16-8.15C113.7,104.6,111.93,98.77,113.6,91.37ZM92.84,36.15A23.44,23.44,0,1,0,116.37,59.5,23.49,23.49,0,0,0,92.84,36.15Zm78.6,23.43a23.41,23.41,0,1,0,23.37-23.43A23.4,23.4,0,0,0,171.44,59.58ZM144.9,127.05c8-7.93,15.81-15.49,23.37-23.31,3.82-3.95,3.4-10.35-.42-14.26a10.57,10.57,0,0,0-14.28-.73c-1.87,1.57-3.53,3.41-5.27,5.13-2.8,2.78-3.75,2.79-6.48.08-1.63-1.61-3.21-3.28-4.88-4.84-4.57-4.25-11-4.2-15.2.07-4,4.12-3.89,10.64.35,15,2.62,2.71,5.32,5.34,8,8ZM127.26,249.82a19.91,19.91,0,0,0,3.37-2q8.49-8.36,16.85-16.83c2.21-2.23,2.07-3.95-.3-6.32s-4.15-2.56-6.32-.41c-5.65,5.57-11.24,11.21-16.86,16.82-1.23,1.24-2.22,2.77-1.11,4.35A37.19,37.19,0,0,0,127.26,249.82Zm-10.39-10.88a14.42,14.42,0,0,0,2.54-1.7q8.39-8.27,16.68-16.65c2.26-2.29,2.18-4-.15-6.32-2.51-2.53-4.18-2.68-6.48-.41-5.58,5.53-11.12,11.11-16.68,16.66-1.23,1.23-2.19,2.62-1.27,4.35A7,7,0,0,0,116.87,238.94ZM104.66,229a23.6,23.6,0,0,0,3.51-2.28q8.4-8.26,16.68-16.66c2.22-2.24,2.1-3.91-.28-6.3s-4.11-2.61-6.3-.45c-5.64,5.58-11.24,11.22-16.86,16.83-1.24,1.24-2.25,2.74-1.13,4.33A37.78,37.78,0,0,0,104.66,229ZM94.3,218A15.81,15.81,0,0,0,97,216.22q8.3-8.17,16.5-16.47c2.26-2.29,2.19-3.94-.13-6.31s-4.24-2.68-6.49-.44c-5.58,5.52-11.11,11.1-16.67,16.64C89,210.87,88,212.25,88.89,214A6.84,6.84,0,0,0,94.3,218Zm59.06-71.41V127.7a41.33,41.33,0,0,0-6,5.4c-1.54,1.55-3.15,1.55-4.73,0-.82-.8-1.62-1.62-2.43-2.43l-5.82-5.81v17.27Z"/></svg>