<svg xmlns="http://www.w3.org/2000/svg" viewBox="0 0 288 288"><defs><style>.a{fill:#cf9d6c;}</style></defs><path class="a" d="M16,163.74H34.91c-.16-.48-.16-.79-.3-.87-4.83-2.69-6.56-6.91-6.54-12.27.07-21,0-42,0-63,0-8.85,4.55-13.43,13.35-13.43q15.12,0,30.25,0c7.58,0,12.33,4.66,12.52,12.2,0,.75,0,1.51,0,2.25.17,2.1-.41,5.15.74,6.11,2.75,2.29,5.83,4.61,10.08,4,3.6-.57,7.3-.53,11-.74l11-.6.72.78a7.89,7.89,0,0,0-1.78.76,44.54,44.54,0,0,0-6,4.87c-3.35,3.67-7.28,4.43-11.9,3.38a22.42,22.42,0,0,0-5.7-.65c-4.38.15-7.76-1.8-11-4.41A101.4,101.4,0,0,0,70.1,94.4,18.72,18.72,0,0,0,71.25,96c4.51,5.24,9,10.51,13.6,15.66a5.33,5.33,0,0,0,3.09,1.6c11.74,1.37,23.5,2.6,35.25,3.91,5.95.66,10.13,5.48,9.64,11a10.16,10.16,0,0,1-11.26,9.56c-10.37-.89-20.71-2.12-31.06-3.21-3.48-.37-6.94-.82-10.43-1.15a10.91,10.91,0,0,1-7.48-4c-5.42-6.32-10.88-12.62-16.32-18.93a7.44,7.44,0,0,0-2.33-2c.27.64.51,1.3.84,1.92,4,7.67,8.1,15.29,12,23,2.15,4.21,5.3,6.57,10.09,7,13.42,1.35,26.82,2.91,40.24,4.24a3.6,3.6,0,0,1,3.42,2.62,13.25,13.25,0,0,1-.41,10.42q-11.72,27.83-23.33,55.7c-1.09,2.6-2.17,5.22-3.31,7.81-2.94,6.67-9.85,9.62-16.29,7s-9.44-9.84-6.63-16.62C76.75,196.73,83,181.94,89.2,167.13c.32-.75.6-1.51,1.08-2.75-2.52,0-4.72-.09-6.9.07-.53,0-1.21.79-1.45,1.37-6.17,14.64-12.54,29.2-18.35,44C58.51,222.7,68,236.15,81.9,236.33h2.23c0,3.26.08,6.32,0,9.38a3,3,0,0,0,1.8,3.16c7.35,4,14.58,3.81,21.45-.89s14.26-7,22.59-6.28a32.14,32.14,0,0,1,15.31,5.58c8.61,5.82,16.18,5.85,24.8.12,11.81-7.86,25.33-7.87,37,0,8.61,5.76,16.15,5.67,24.82,0,11.25-7.39,22.91-7.85,34.67-1.33,2.12,1.18,3.63,3.46,5.43,5.23v3.5c-3.08,4.4-6.15,5.55-9.69,3.24-8.59-5.61-16.66-4.82-25.12.7-11.63,7.59-23.84,7.63-35.46,0-9.07-5.95-17.34-5.87-26.4.05-11.63,7.61-23.76,7.37-35.49-.07-9.69-6.14-16.37-6.26-25.88,0a31.68,31.68,0,0,1-27.23,4.13c-.76-.22-1.55-.37-2.7-.65v7H63.74L16,269.24Z"/><path class="a" d="M230.5,154.56h-8.95v-116c-1.05.77-1.77,1.25-2.44,1.79q-43.5,34.83-87,69.7a3.94,3.94,0,0,1-4,.8,94.52,94.52,0,0,0-9.83-1.6c-1-.15-2.08-.26-3.7-.47l7.81-6.26Q173.21,61.8,224.05,21.14a10.52,10.52,0,0,1,5.57-2.2c2.37-.14,4.14,1.52,5,3.87a5.21,5.21,0,0,1-1.68,6.3c-2.09,1.55-2.46,3.35-2.46,5.75q.11,58.38.05,116.75Z"/><path class="a" d="M64.44,18.76A22.88,22.88,0,1,1,41.52,41.6,22.91,22.91,0,0,1,64.44,18.76Z"/><path class="a" d="M230.88,216.65c4.25,2.11,7,5.24,7.86,9.85a11.84,11.84,0,0,1,.2,2.72c-.13,2.26-1,2.79-3.09,1.84-1.28-.59-2.52-1.28-3.76-2a11.72,11.72,0,0,0-12.12,0,42.88,42.88,0,0,1-4,2c-1.93.84-2.84.31-2.9-1.85a12.5,12.5,0,0,1,5.55-11.11c.73-.52,1.53-1,2.49-1.56-5.3-6.47-7.51-14.15-8.87-22.13-1.27-7.42-1.16-14.78,1.7-21.86a26.56,26.56,0,0,1,3.37-6.08c5-6.64,12.26-6.61,17.38-.07a25.71,25.71,0,0,1,5.08,12.06c2,12.28-.45,23.81-6.41,34.65A38.26,38.26,0,0,1,230.88,216.65ZM233,176.82l0-1.2c-1-.64-2-1.88-2.85-1.76s-1.74,1.49-2.6,2.31c.84.85,1.6,2.25,2.55,2.39S232.05,177.45,233,176.82Z"/></svg>