<svg xmlns="http://www.w3.org/2000/svg" viewBox="0 0 288 288"><defs><style>.a{fill:#cf9d6c;}</style></defs><path class="a" d="M22.07,255.66a16.91,16.91,0,0,1-.45-2.7c0-9.87,0-19.75-.06-29.62,0-2.18.74-2.86,2.85-2.82,5.19.11,10.38,0,15.71,0V201.89H33.26c-2.18,0-4.36,0-6.53,0-2.63,0-3.56-.93-3.6-3.5-.12-6.38-.12-6.81,6.46-6.65,4.1.09,8.2,0,12.42,0V141.41c-3.22.69-6.32,1.18-8.36-1.61a30.26,30.26,0,0,1-5.36,1.1c-3.11.08-5.65-2.21-5.19-5.27a30,30,0,0,1,3.15-10.07c7.37-13.13,14.52-26.41,23.41-38.64C59.07,74,69.27,61.75,81.88,51.81A122.4,122.4,0,0,1,98.69,40.58c14.12-7.71,28.4-7.34,42.51.35,11.69,6.37,21.36,15.23,30.28,24.94,15.34,16.7,27.66,35.51,38.18,55.55,1.22,2.34,2.6,4.59,3.82,6.93a20.51,20.51,0,0,1,2,4.67,4.76,4.76,0,0,1-6.18,5.65c-.81-.24-1.59-.58-2.46-.9-3.77,4.81-8,3.38-12.59.63v53.35H254c3.61,0,4.21.6,4.22,4.17,0,5.94,0,6-6,6h-8.34v18.67c4.51,0,9,0,13.48,0a19.17,19.17,0,0,1,3.14.56v34.52ZM119.51,37.77A44,44,0,0,0,98.3,43.84C83.42,52.19,71.6,64,60.78,77c-12.87,15.43-22.59,32.87-32.35,50.29A26,26,0,0,0,25.94,134c-.25,1.09.16,3.06.91,3.47,1.07.58,2.74.2,4.12,0,.55-.06,1-.69,1.53-1,1.37-.89,2.56-.77,3.17.87A2.4,2.4,0,0,0,38.8,139a43.58,43.58,0,0,0,6.71-2.48c1.86-.86,3.18-.78,4.31,1.09,2.18,3.63,5,3.84,7.83.66,1.5-1.69,2.81-1.65,4.19.14,2.61,3.38,3.79,3.42,6.74.23,2.63-2.84,3.53-2.83,6,.1,1.84,2.14,3.83,2.19,5.72.16,2.52-2.71,3.68-2.69,5.89.1s3.41,2.76,5.47-.15c1.6-2.25,2.94-2.28,4.69,0a3.28,3.28,0,0,0,4.31,1.19,13.86,13.86,0,0,0,3.56-2.52c2.15-2.08,3.78-2.21,5.64.11a4.84,4.84,0,0,0,5.61,1.7,9.36,9.36,0,0,0,3.59-2.06c1.85-1.75,3.42-2,5.43-.18a4.58,4.58,0,0,0,6,0c2.74-2,3-2,5.29.52s6.25,3.65,9,.93c1.14-1.12,2.32-.94,3.51.09,3.54,3.07,5.85,3.09,9.79.52a4,4,0,0,1,3.19-.46c4.29,1.87,4.26,2,7.62-1.44a2.66,2.66,0,0,1,4.09-.19c2.44,2,3.36,2.05,6,.28a3.65,3.65,0,0,1,4.52,0c3.57,2.45,5.56,2.32,8.64-.62a3.22,3.22,0,0,1,4.22-.53,19.24,19.24,0,0,0,3.11,1.56c1.76.59,3.5.39,4.56-1.28,1.3-2,2.78-2,4.79-1.16,1,.41,2.24.12,3.38.14,0-1.16.43-2.5,0-3.46-1.08-2.39-2.63-4.57-3.82-6.92a271.75,271.75,0,0,0-29.37-46.11c-10-12.61-21-24.16-34.63-33C136.89,41.17,128.75,37.91,119.51,37.77ZM24.58,223.47v29.26h233V223.47Zm230.73-28.78H26.1v4.24H255.31ZM121.92,138.86a18.06,18.06,0,0,1-3.34,2.24c-1.76.67-2.16,1.74-2.15,3.53.07,14.85,0,29.69,0,44.54v2.43h3.71v-2.67c0-9.72,0-19.43,0-29.15,0-6,3.41-9.41,9.41-9.43q20-.06,39.88,0c6.21,0,9.48,3.32,9.49,9.53q0,14.58,0,29.15v2.61h3.77c.06-.6.16-1.12.16-1.65q0-23.91,0-47.81c0-.46.13-1.2-.09-1.34-.71-.45-1.91-1.17-2.3-.9-3.32,2.32-6.38,1.92-9.35-.54-4.86,4.34-5.74,4.49-11.32,2.08-4.85,3.36-8,3.27-13.41-.38-4.9,3.11-7.87,2.65-13.53-2.13C129.27,141.81,125.56,141.77,121.92,138.86ZM123,192.35a18.27,18.27,0,0,0,3.64-1.8c5.32-4.54,10.58-9.16,15.83-13.78,2.44-2.16,5.72-4,7-6.69s.35-6.24.38-9.42c0-2.45,0-4.91,0-7.52-6.92,0-13.44,0-20,0-4.73,0-6.83,2.14-6.85,6.86,0,6.92,0,13.84,0,20.76Zm-24-.68c0-11.24,0-22.25,0-33.26a4.9,4.9,0,0,0-4.63-5c-4.69-.25-9.41-.07-14.17-.07v38.35Zm-42.3,0V189c0-9.72,0-19.44,0-29.15,0-6,3.38-9.43,9.38-9.47q13.17-.06,26.35,0c6,0,9.38,3.46,9.39,9.44q0,14.69,0,29.38v2.43h3.31V140.92c-3.91,2.68-7.65,3.56-11.13-.15-3.9,4.49-6.24,4.3-10.66-.66-5,4.29-7.54,4.22-11.7-.34-6.32,5.22-7.6,5.31-11.7,1.1l-6.5,3v47.78Zm41.44,28.69h37.58V202.09H98.15Zm48.53,0h37.6V202.08h-37.6Zm48.54,0h37.6V202.08h-37.6Zm-108,.07V202.08H51.14v18.36ZM77,191.67V153.41a2.65,2.65,0,0,0-.58-.22c-3.19,0-6.37-.05-9.56-.05-5.35,0-7.36,2-7.37,7.29v31.24Zm75.59.08a34.7,34.7,0,0,1,4.35,0c2,.26,3.27-.59,4.53-2.07,4.42-5.21,9-10.29,13.43-15.47a4.71,4.71,0,0,0,1.2-2.61c.11-4.27.19-8.55-.05-12.81a8.28,8.28,0,0,0-1.77-4.1c-.89-1.23-2-1.45-3.47-.15-5.59,5.05-11.32,9.93-17,14.91a3.13,3.13,0,0,0-1.2,1.83C152.58,178,152.61,184.77,152.61,191.75Zm-102.29-.1a3.64,3.64,0,0,0,.17-.66q0-23.64,0-47.27a2.32,2.32,0,0,0-.59-1.6c-1.06-.91-2.25-1.64-3.39-2.45-1.25-.26-1.62.87-1.62,2.59.06,15.75,0,31.51,0,47.27,0,.68.07,1.35.1,2.12Zm63.19,0V142.83l-5.23-2.1v50.94Zm77.64,0v-50.2l-5.24.57v49.63Zm-41.47,0V173.13l-21.19,18.51Zm3-23.83,16.59-14.52H152.72ZM176,176.08l-13.55,15.5H176ZM90.3,202v18.35h4.82V202Zm53.39,18.46v-18.4h-4.8v18.4Zm48.52,0V202.08h-4.84v18.36Zm-144.15,0V202.08H43.21v18.36Zm192.69.12V202.08h-4.84v18.48h4.84Z"/><path class="a" d="M206.36,68.92c-.16.21-.4.86-.77,1a1.89,1.89,0,0,1-1.63-.34c-1.45-1.81-2.92-2-4.83-.66a2.21,2.21,0,0,1-2.06-.58c-1.27-2-2.54-3.53-5.25-2.56a1.6,1.6,0,0,1-1.36-.8,2.08,2.08,0,0,1,.68-1.71,4.44,4.44,0,0,1,5.42.42,5.65,5.65,0,0,0,5,1.64C203.73,65,206.25,67,206.36,68.92Z"/><path class="a" d="M227.5,84.44c3.2,1.67,6.15,2.3,9.33,1.31.59-.18,1.67.47,2.2,1s.28,1.34.39,2c-.63.07-1.45.44-1.86.17-1.52-1-2.62-.5-3.63.7s-1.84,1.13-3-.09a8,8,0,0,0-3.48-1.84c-1-.3-2.71.5-2.51-1.31C225,85.71,226.58,85.12,227.5,84.44Z"/><path class="a" d="M176.74,116.69c-1.31,1.88-3.65,2.45-6.35,1.46-3.1-1.13-4.36-3.82-5.18-6.72a1.8,1.8,0,0,1,.88-1.56,2,2,0,0,1,1.6.83c.78,1.14,1.1,2.7,2.07,3.57a6.38,6.38,0,0,0,3.69,1.26c.35,0,.78-1.68,1.23-2.56.28-.58.55-1.32,1-1.57s1.15.22,1.58.57a40.94,40.94,0,0,0,3.26,3c2.39,1.57,3.93,1,5.32-1.51.26-.46,1.05-.62,1.6-.92.34.63,1,1.26,1,1.88a4.5,4.5,0,0,1-4.62,4.06C181.62,118.27,179.45,117.39,176.74,116.69Z"/><path class="a" d="M56.34,116.42a39.89,39.89,0,0,1-4.71.68c-2.36.05-4-1.84-3.1-4a29.46,29.46,0,0,1,3.76-6c.27-.38,1.3-.21,2-.29,0,.75.17,1.65-.17,2.22-1,1.63-2.15,3.12-3.24,4.67l.46.79c1.57-.37,3.18-.61,4.69-1.13,1.71-.59,2.8-.69,3,1.6.16,1.72,1.43,2.41,3,1.78,1.36-.53,2.57-1.45,3.92-2a7.77,7.77,0,0,1,2.47-.09A7.3,7.3,0,0,1,67.41,117a11.66,11.66,0,0,1-3,1.82C61,120.57,58.5,119.84,56.34,116.42Z"/><path class="a" d="M144.3,94.86a8.21,8.21,0,0,1-7.5-6.81c-.06-.58.55-1.22.85-1.84a6.29,6.29,0,0,1,1.72,1.17c.72,1,1.06,2.27,1.86,3.17,2.09,2.35,4.76,1.92,6.41-.77.3-.49,1.18-.62,1.79-.92.25.66.79,1.37.7,2C149.81,93.16,147.19,94.88,144.3,94.86Z"/><path class="a" d="M85.43,88.36a10.89,10.89,0,0,0,8.18-1.53c1-.55,2-1.49,2.66,0,.23.51-.49,1.87-1.13,2.31a13.46,13.46,0,0,1-8.83,2.26c-3.08-.28-4.48-2.62-3.13-5.22.31-.59,1.22-.88,1.85-1.31.24.75.51,1.5.7,2.27C85.79,87.39,85.6,87.71,85.43,88.36Z"/><path class="a" d="M107.54,114.69c-3.09-.28-5.75-2.37-6-5.17-.06-.77.7-1.62,1.09-2.43.53.59,1.34,1.11,1.54,1.8.78,2.74,3.3,3.62,5.54,1.74.86-.73,1.76-1.77,2.6-.45.32.51-.29,2.11-.94,2.64A18.15,18.15,0,0,1,107.54,114.69Z"/><path class="a" d="M196.57,240.77c2,0,4-.12,6,.07.68.07,1.27.95,1.9,1.46-.63.42-1.25,1.19-1.89,1.21q-6,.17-12.08,0c-.62,0-1.21-.86-1.81-1.32.6-.47,1.17-1.28,1.81-1.34C192.53,240.66,194.55,240.77,196.57,240.77Z"/><path class="a" d="M227.83,233.26a54.05,54.05,0,0,1-5.55-.06c-.64-.06-1.21-.85-1.82-1.31.6-.47,1.18-1.33,1.78-1.35,3.78-.13,7.57-.12,11.35,0,.57,0,1.12.92,1.68,1.42-.55.43-1.07,1.18-1.65,1.23C231.7,233.36,229.76,233.26,227.83,233.26Z"/><path class="a" d="M71.5,231.31a40.67,40.67,0,0,1,4.42.06c.5.06,1.29.8,1.29,1.22S76.48,233.94,76,234c-3,.13-6,.15-9.06,0-.49,0-.94-1-1.41-1.49.51-.39,1-1.05,1.53-1.11A43.19,43.19,0,0,1,71.5,231.31Z"/><path class="a" d="M56.5,231.32a38.32,38.32,0,0,1,4.42.06c.49.05,1.27.8,1.26,1.22A1.83,1.83,0,0,1,61,234c-3,.12-6.06.11-9.08,0-.44,0-.86-.9-1.28-1.38.47-.41.92-1.13,1.44-1.19A40.65,40.65,0,0,1,56.5,231.32Z"/><path class="a" d="M158.85,234.72a30.57,30.57,0,0,1-3.71-.05c-.46-.06-1.24-.77-1.19-1.09.07-.55.66-1.45,1.07-1.47,2.62-.13,5.25-.14,7.87,0,.41,0,1,.92,1.07,1.47,0,.32-.72,1-1.17,1.09a34.5,34.5,0,0,1-3.94.05Z"/><path class="a" d="M96.36,239.7a16.55,16.55,0,0,1,3.23.06c.57.12,1,.85,1.53,1.31-.44.45-.87,1.28-1.34,1.3a59.35,59.35,0,0,1-6.93,0c-.46,0-.86-.87-1.29-1.33.52-.44,1-1.14,1.57-1.26A16.55,16.55,0,0,1,96.36,239.7Z"/><path class="a" d="M113.47,239.71a19.41,19.41,0,0,1,3.24,0c.54.1,1.34.73,1.37,1.16a1.84,1.84,0,0,1-1.12,1.4,57.39,57.39,0,0,1-6.94,0,1.79,1.79,0,0,1-1.12-1.39c0-.43.8-1.08,1.34-1.18A19.29,19.29,0,0,1,113.47,239.71Z"/><path class="a" d="M213.14,233.25a12.49,12.49,0,0,1-3-.06c-.58-.14-1-.89-1.49-1.37.45-.44.87-1.23,1.34-1.26a50,50,0,0,1,6.48,0c.5,0,.94.81,1.41,1.25-.5.49-.94,1.26-1.51,1.39A15.11,15.11,0,0,1,213.14,233.25Z"/><path class="a" d="M181.82,243.56a8,8,0,0,1-2.3-.06c-.62-.18-1.09-.81-1.63-1.24.56-.49,1.07-1.33,1.68-1.41a18.32,18.32,0,0,1,4.62,0c.58.07,1.09.82,1.63,1.25-.56.49-1,1.18-1.71,1.41A7,7,0,0,1,181.82,243.56Z"/><path class="a" d="M140.57,235.26c-1-.61-3-1.27-3-1.81.12-2.17,2.11-1.3,3.43-1.49a1.67,1.67,0,0,1,.92,0c.79.41,1.53.91,2.29,1.38-.73.46-1.44,1-2.22,1.37a2.89,2.89,0,0,1-1.14,0Z"/></svg>