<svg xmlns="http://www.w3.org/2000/svg" viewBox="0 0 288 288"><defs><style>.a{fill:#cf9d6c;}</style></defs><path class="a" d="M257,49.72A35.92,35.92,0,0,1,254.15,53c-5.39,4.89-10.83,9.71-16.26,14.55-3.59,3.2-5.07,3.18-8.78-.24L64.89,210.46c.4.54.75,1,1.08,1.46a4.25,4.25,0,0,1-.49,6c-4,3.69-8.06,7.3-12.16,10.87a3.22,3.22,0,0,1-2.18.65c-4.5-.38-8.29.84-11.27,4.88L31,223.79v-2.65c4.16-3.9,8.31-7.82,12.5-11.69,2-1.9,4.17-3.72,6.25-5.58,4.14-3.69,5.34-3.68,9.4.17l164-143c0-.26,0-.43-.07-.53-3-4.13-2.88-5.37,1-8.84,5.55-4.93,11.07-9.89,16.62-14.81,3-2.63,5.06-2.5,7.72.48,2.87,3.22,5.7,6.48,8.54,9.72Z"/><path class="a" d="M142.52,124.78c-4.24-6.84-2.41-16.94,3.94-22.6,6.56-5.85,16.62-6.46,23.36-1.2Z"/><path class="a" d="M87.7,172.56,70.13,187.88c-2.7-4.24-.14-10.41,5-12.34.55-.2,1.11-.37,1.68-.52l10.6-2.8Z"/><path class="a" d="M208.47,67.28,193.8,80.08c-1.51-9,3.2-14.71,10.32-14A26.37,26.37,0,0,1,208.47,67.28Z"/><path class="a" d="M224.7,238.46a49.26,49.26,0,0,1-5.77-2.84c-4-2.62-8-4.88-12.77-5.7-8.55-1.48-16.52-.14-23.74,4.88l-1.65,1.1c-4.25,2.83-7.66,3-11.81,0a32.24,32.24,0,0,0-22.14-6.42,31.84,31.84,0,0,0-15.31,5.67,17.26,17.26,0,0,1-5.25,2.63,8.8,8.8,0,0,1-7.49-1.7,31.09,31.09,0,0,0-16.6-6.57c.84-2,1.44-3.72,2.32-5.33,3.78-7,9.31-12.45,15.23-17.54,13-11.15,27.42-20.2,42.44-28.34a2.91,2.91,0,0,1,2.35-.18C181,187.16,197,197,210.9,209.94c5.08,4.72,9.68,9.86,12.6,16.27A18.75,18.75,0,0,1,224.7,238.46Z"/><path class="a" d="M189.86,187.1c-2.86-1.79-5.31-3.4-7.82-4.88-5-2.94-10.07-5.77-15.06-8.73a6.31,6.31,0,0,0-7,0c-5.48,3.26-11,6.43-16.55,9.64-.75.44-1.49.9-2.43,1.47l-2.15-15.11c-1.63,1.07-3,2-4.39,2.87a67,67,0,0,0-6.75,4.56c-8.43,7.18-19,8.84-29.16,11.57-.12,0-.28-.07-.68-.18l9.85-8.62q20.19-17.59,40.42-35.15a6.75,6.75,0,0,1,3.28-1.43c6.69-1,13.4-1.77,20.1-2.72a3.08,3.08,0,0,0,1.88-1.21c5.71-8.55,11.42-17.09,16.94-25.76.82-1.3.62-3.23,1-4.85.18-.82.27-1.87.81-2.36,6.25-5.56,12.57-11,19.33-16.92-.26,3.54-.48,6.55-.69,9.56-.4,5.63-.65,11.29-1.28,16.9a14.19,14.19,0,0,1-2.1,5.89c-6.85,10.61-13.89,21.09-20.76,31.68a6.16,6.16,0,0,0-.79,3.84C187,167,188.44,176.8,189.86,187.1Z"/><path class="a" d="M225.36,253a23.19,23.19,0,0,1-14-4.2c-3.1-2.13-6.2-4.11-10.18-4.32a17.48,17.48,0,0,0-11.69,3.75,24.67,24.67,0,0,1-28.11.8c-3.17-2.13-6.27-4.32-10.34-4.54A17,17,0,0,0,139.52,248a24.67,24.67,0,0,1-15.85,5A25.66,25.66,0,0,1,109,247.64a16.41,16.41,0,0,0-9.64-3.24c-4.15-.06-7.54,1.6-10.75,3.93A24,24,0,0,1,72.87,253a22.39,22.39,0,0,1-11.81-3.77c-3.79-2.59-7.59-4.92-12.48-4.88a4,4,0,0,1-3.88-4.5,4.37,4.37,0,0,1,4.67-4,24.57,24.57,0,0,1,13.28,4.11,30.28,30.28,0,0,0,7.76,4,14.52,14.52,0,0,0,12.79-2.33c3.88-2.71,7.89-5,12.77-5.57a25.26,25.26,0,0,1,17.22,4A29.51,29.51,0,0,0,121,244a14.41,14.41,0,0,0,12.94-2.62,25.57,25.57,0,0,1,19.89-5.23c4.51.68,8.29,2.86,11.91,5.42a14.51,14.51,0,0,0,12.77,2.41,30.33,30.33,0,0,0,8-4.07,23.94,23.94,0,0,1,20.25-3.13,26.82,26.82,0,0,1,8,4c7,4.9,13.86,5.06,20.79,0a24.27,24.27,0,0,1,14.35-4.94,4.44,4.44,0,0,1,4.81,4.13,4.22,4.22,0,0,1-4.23,4.45c-4.13,0-7.54,1.61-10.76,3.93A22.67,22.67,0,0,1,225.36,253Z"/><path class="a" d="M177.46,118.91c-.78,8.79-10.09,16.86-17.94,15.64Z"/></svg>