<svg xmlns="http://www.w3.org/2000/svg" viewBox="0 0 288 288"><defs><style>.a{fill:#cf9d6c;}</style></defs><path class="a" d="M50.52,254.28c-5.57,0-11.07,0-16.58,0a35.22,35.22,0,0,1-7.35-.46,12,12,0,0,1-9.22-13,12.28,12.28,0,0,1,11.75-11.06c4.08-.12,8.17,0,12.26,0,2.8,0,4.27-1.43,4.55-4.12.75-7.29,4.23-11,11.67-12.32a57.16,57.16,0,0,1-2.88-7.4,20.29,20.29,0,0,1,9.91-22.63,4.63,4.63,0,0,0,2.11-2.5c2.27-9.41,9.13-15.45,18.81-16.38.33,0,.66-.08,1.11-.14V148.06H42c-.79-8,1.09-15,6.61-20.75,3.18-3.32,6.49-6.52,9.73-9.78.58-.58,1.13-1.2,2-2.11H42c-.85-8.25,1.18-15.32,6.92-21.15,3.69-3.74,7.48-7.39,11.68-11.52H42.32c-2.29-8-.12-14.59,6.2-19.33A106.19,106.19,0,0,0,80.8,24.49c1.43-2.93,3.24-5.39,6.4-6.59,5-1.89,10.1.26,13,5.1,4.37,7.27,8.66,14.63,13.59,21.52a80.66,80.66,0,0,0,19.36,18.77c4.83,3.41,7.24,7.7,6.77,13.63-.14,1.77,0,3.55,0,5.63h-18.5c7,8.46,17.26,14,18.32,26.14,15.66-12.22,22.69-12.79,37.54-3.35,1.35-2.31,2.77-4.59,4-7a3.69,3.69,0,0,0,.18-2.35c-2.8-11.84,3.82-22.42,15.8-25.31A3.92,3.92,0,0,0,199.5,69c4-7,10-10.87,18.1-10.86S231.66,62,235.67,69.07a3.91,3.91,0,0,0,2.25,1.67c11.92,2.83,18.46,13.39,15.72,25.37a3.8,3.8,0,0,0,.57,2.72c4.55,6.41,5.5,13.19,2.51,20.54a3,3,0,0,0,.44,2.56c7.82,9.34,7.06,21.3-1.91,29.43a3.21,3.21,0,0,0-1,2.27c.68,8.5-2.34,15.3-9.54,19.81s-14.66,4.28-21.92-.23c-.21-.13-.45-.22-.9-.44V201c7.36.69,12.56,4.25,15.27,11.27.22.57,1.41,1.06,2.16,1.07,6.13.09,12.26,0,18.39,0,7.44,0,13,5.22,13,12.18s-5.5,12.33-13.1,12.34c-15.66,0-31.33,0-47,0-1.28,0-3,.24-3.72,1.07-.89,1.06-1.59,3.11-1.13,4.22a5.35,5.35,0,0,0,3.75,2.7c3.71.38,7.48.13,11.23.14,7.63,0,13.18,5.18,13.18,12.25s-5.54,12.27-13.16,12.27c-51.93,0-103.86-.16-155.78.15C55.74,270.83,48.13,264.68,50.52,254.28Zm147.15-8.23c-2.46-10.42,5.43-16.64,13.52-16.41,15.14.42,30.3.12,45.45.12a12.48,12.48,0,0,0,2.29-.07,4.05,4.05,0,0,0,0-8,16.33,16.33,0,0,0-2.8-.06H60.54c-.68,0-1.36,0-2,0-2.73.13-4.14,1.51-4.4,4.28-.69,7.57-5.55,12-13.13,12.06-3.83,0-7.66-.06-11.48,0a4,4,0,0,0-1,7.9,9.18,9.18,0,0,0,2.78.22H86.64v8.17H63.8c-3.68,0-5.59,1.42-5.59,4.1s1.92,4.07,5.61,4.08H219.58a14.44,14.44,0,0,0,2.55-.07,4.05,4.05,0,0,0,.05-8,12.48,12.48,0,0,0-2.29-.07H189.17v-8.23Zm-94.4-139h27.6l.56-.62a57.2,57.2,0,0,0-4.75-6.69c-4-4.3-8.41-8.22-12.36-12.56-2.89-3.18-5.86-5.55-10.45-4.66-.19,0-.43-.19-.59-.27V74.36h28.29l.41-.65a29.17,29.17,0,0,0-2.73-3c-3.74-3.21-7.73-6.16-11.32-9.52a114.68,114.68,0,0,1-24.3-32.89c-.54-1.09-1.89-2.69-2.62-2.57-1.1.18-2.2,1.54-2.92,2.64-1.2,1.85-2,3.91-3.14,5.83A115.71,115.71,0,0,1,52.86,70.43a22.68,22.68,0,0,0-3.09,3.44l.55.71H78.48v8c-1.73,0-3.34-.09-4.93,0a3.83,3.83,0,0,0-2.22.87C65.51,89.26,59.68,95,54.05,100.9c-1.54,1.61-2.42,3.84-4,6.36H78.5v8c-1.71,0-3.31-.09-4.9,0a3.74,3.74,0,0,0-2.23.83c-5.88,5.8-11.77,11.6-17.46,17.57-1.49,1.56-2.32,3.75-3.65,6h77.29c1.34-5,1.29-5.2-2.12-8.61-3.67-3.67-7.5-7.2-11-11.06-2.92-3.26-6-5.72-10.64-4.81-.13,0-.29-.12-.56-.24Zm140.78,41.22c5.91-2.33,10.18-5.84,10.26-12.51.07-6.82-4.65-10.18-10.17-13,3.16-3.69,6.39-7,6.12-12.18S246.78,102.4,243,99.6c.75-1.43,1.42-2.61,2-3.84A12.06,12.06,0,0,0,233.8,78.63c-2.81.09-3.91-.64-4.58-3.41a12.06,12.06,0,0,0-23.3,0c-.66,2.77-1.76,3.5-4.57,3.41A12,12,0,0,0,190.1,95.71c.58,1.31,1.29,2.56,1.94,3.85-1.37,1.21-2.71,2.26-3.88,3.48-3.09,3.23-4.41,9.21-2.67,12.28,8.09,14.23,9.35,29.23,5.39,44.91a4.7,4.7,0,0,0,.77,3.41,12,12,0,0,0,13.45,4.17,12.23,12.23,0,0,0,8.35-11.4c.09-5.27-.45-10.61.14-15.82.95-8.3-1.4-15-7.36-20.79-3.06-3-5.44-6.66-8.19-10.12l6.36-5.08L213.55,116v-25h8.1v41.32l9.08-11.3,6.35,5.11c-4.87,6.1-9.61,12-14.28,17.94a5,5,0,0,0-1.09,2.69c-.13,3.31-.18,6.64,0,10a11.68,11.68,0,0,0,7.37,10.75,11.41,11.41,0,0,0,12.85-2,11.59,11.59,0,0,0,3.68-12.71C245.2,151.29,244.64,150,244.05,148.31ZM115.8,190.94c-.75-1.44-1.37-2.84-2.16-4.12-2.65-4.28-6.53-6.62-11.54-5.92-2.51.35-3.64-.44-4.89-2.32-3.47-5.26-8.9-7.23-14.32-5.41s-8.54,6.6-8.26,12.68c.09,1.9-.24,2.87-2.34,3.32-5.54,1.19-9,4.72-9.89,10.34-1,6,2.77,9.87,6.66,13.55a2.73,2.73,0,0,0,1.68.33q28.58,0,57.16,0a3.83,3.83,0,0,0,2.28-1.16,33,33,0,0,0,2.83-3.28,12.07,12.07,0,0,0,.91-14.27,12,12,0,0,0-13.47-5.27C118.91,189.8,117.41,190.39,115.8,190.94Zm64.08-60.82c-2.23,2.8-4.3,5.39-6.35,8-3,3.8-7.16,7.21-8.67,11.53s-.4,9.59-.41,14.44c0,5.25,0,10.5,0,16.07,1.32-.49,2.37-.8,3.34-1.26a24,24,0,0,0,10.14-9.43c6.57-10.64,8.13-22.24,6.18-34.39-1.43-8.85-4.69-16.9-11.58-23-7.46-6.63-17.06-6.55-24.48.15a25.66,25.66,0,0,0-3.94,4.33c-8.31,11.92-9.83,25.14-6.94,39,1.76,8.43,5.35,16,12.47,21.32a47.71,47.71,0,0,0,6.26,3.42c1.26-6.83,0-12.3-4-17.44s-7.43-11-11.21-16.66l6.78-4.51,8.39,12.55.57-.19v-30.4h8.08v12.66l9.06-11.24Zm-84.9,18c0,5.85,0,11.45,0,17a1.56,1.56,0,0,0,.39,1.12c2.55,2.08,5.12,4.13,7.74,6.11.35.27,1,.18,1.49.23a20.94,20.94,0,0,1,14,7,4,4,0,0,0,2.93,1.13,20.47,20.47,0,0,1,21.86,25c-.62,2.58-1.95,5-2.95,7.48h15.72V188.83c-20-6.36-26-22.36-28.6-40.75ZM213.35,172.7c-9.51,6-18.35,5.05-26.69-2.09-5.08,8.89-11.77,15.69-22,17.91v23.81c1.87-2.36,4-5,6.13-7.72a11.42,11.42,0,0,0,2.23-3.67c2.05-7.94,6.89-13.27,14.76-15.4,8-2.16,14.87.3,20.6,6.26a41.32,41.32,0,0,0,4.95,3.79ZM174,212.63l.44.63H228.1a8.74,8.74,0,0,0-3.22-3.1c-3.68-2-7,.28-10.53,1.36-.36-1.31-.66-2.35-.93-3.41a8.78,8.78,0,0,0-6.74-6.88,5.76,5.76,0,0,1-3-2.13c-2.46-3.61-5.67-5.86-10.06-6.09a12.1,12.1,0,0,0-12.71,12.83c.09,2.2-.36,3.35-2.61,4C176.72,210.37,175.42,211.69,174,212.63Zm-39.17-97.14H122.39l8.55,8.59Z"/><path class="a" d="M86.85,237.93v-7.71c5.76,0,11.54-.53,17.18.18,4.32.53,6.74,4.18,7.17,8.54.25,2.49,1.32,3.17,3.59,3.11,4.16-.1,8.33,0,12.68,0v8c-5.3,0-10.66.35-15.94-.11-4.59-.4-7.89-4.31-8.3-9-.2-2.37-1.26-3-3.43-3C95.56,238,91.32,237.93,86.85,237.93Z"/></svg>