<svg xmlns="http://www.w3.org/2000/svg" viewBox="0 0 288 288"><defs><style>.a{fill:#cf9d6c;}</style></defs><path class="a" d="M135.77,275.77c-8.47-3.25-16.91-6.53-25.39-9.73q-25-9.41-50-18.74c-4.94-1.85-6.44-4-6.45-9.24q0-6.94,0-13.89a4.74,4.74,0,0,1,.13-.74c1.77-.13,3.64-.11,5.45-.4,10.85-1.7,18.9-9.37,19.84-20.22a148.82,148.82,0,0,0,0-25.94c-1.08-12.07-10.9-20.3-23.1-20.52H54c0-6.3-.36-12.46.11-18.56.39-4.93,5.62-7.51,10.59-5.68,11,4.06,22,8.21,33,12.32,12,4.51,24,9.06,36.09,13.47,1.9.7,2.56,1.55,2.56,3.65q-.12,57.1-.06,114.22Z"/><path class="a" d="M151.72,275.77q0-57.12,0-114.23c0-1.87.41-2.85,2.3-3.55q34.2-12.69,68.33-25.54c7-2.61,11.77.71,11.78,8.15,0,5.14,0,10.27,0,15.47a76.92,76.92,0,0,0-7.7.91c-9.58,2.12-17,9.9-17.76,19.89a156.15,156.15,0,0,0,0,25.95c1.1,12,10.92,20.21,22.92,20.44.76,0,1.51,0,2.45,0,0,5.94.22,11.67-.09,17.38-.18,3.39-2.67,5.34-5.81,6.51-12.2,4.52-24.37,9.12-36.55,13.69l-38,14.27a14.19,14.19,0,0,0-1.36.66Z"/><path class="a" d="M143.9,99.73a43.75,43.75,0,1,1,43.86-43.52A43.77,43.77,0,0,1,143.9,99.73Z"/><path class="a" d="M84.05,122.68a96.61,96.61,0,0,1,21.19-14.25c4.15-2.14,7.44-2.28,12,0,19.11,9.8,38.26,8.94,56.93-1.64a4.26,4.26,0,0,1,4.27-.31A91.3,91.3,0,0,1,204,122.7c-1.07.46-1.86.83-2.68,1.14q-27.4,10.29-54.82,20.5a6.8,6.8,0,0,1-4.36.17c-18.71-6.9-37.37-13.93-56-20.93C85.5,123.34,84.9,123.05,84.05,122.68Z"/><path class="a" d="M64.2,190c0,3.26,0,6.52,0,9.78-.07,4.7-3.25,8-7.92,8a45.86,45.86,0,0,1-8.7-.47,17.82,17.82,0,0,1-14.2-19,18.11,18.11,0,0,1,17.16-16.48c1.89-.07,3.78,0,5.67,0a7.72,7.72,0,0,1,8,7.93C64.25,183.16,64.2,186.6,64.2,190Z"/><path class="a" d="M223.8,189.54c0-3.25,0-6.5,0-9.75.07-4.68,3.26-7.95,7.91-8a45.61,45.61,0,0,1,8.68.47,17.8,17.8,0,0,1,14.24,18.93,18.07,18.07,0,0,1-17,16.56c-2.05.1-4.11.1-6.16,0a7.68,7.68,0,0,1-7.64-7.73C223.74,196.56,223.8,193.05,223.8,189.54Z"/></svg>