<svg xmlns="http://www.w3.org/2000/svg" viewBox="0 0 288 288"><defs><style>.a{fill:#cf9d6c;}</style></defs><path class="a" d="M157.32,174.6q-2.62,7.74-5.25,15.48a11.7,11.7,0,0,0-.61,2.23c-1.26,9.45-6.25,16.78-12.87,23.33-7.2,7.13-14.22,14.46-21.18,21.84a6.4,6.4,0,0,0-1.52,4.24c.25,5.1,1.15,10.18,1.26,15.28.15,7.32-4.82,10.3-11.11,6.6a61.58,61.58,0,0,1-21.2-21.39A9.49,9.49,0,0,1,85,232a126.6,126.6,0,0,1,11-15.91c6-7.06,12.65-13.54,18.94-20.36a9.41,9.41,0,0,0,2.42-4.11c2.56-12.27,4.95-24.57,7.38-36.87a3.32,3.32,0,0,0-.07-1c-2.86-1.59-4.46-.42-6.27,1.83Q89.77,191,61,226.24a16.9,16.9,0,0,1-1.7,2,4.18,4.18,0,0,1-5.78.4,4.26,4.26,0,0,1-1-5.93,22.19,22.19,0,0,1,1.59-2.06q29.32-36.09,58.69-72.16c1.45-1.78,1.73-3.11.69-5.29a104.41,104.41,0,0,1-9.73-33.13c-1.5-13.32,3.41-23.39,14.58-30.48,2.32-1.47,3.09-2.94,2.8-5.79-.91-9,6.18-17.23,15.88-19.1a20.82,20.82,0,0,1,16.54,3.69c-.64-2.52-1.32-4.66-1.72-6.85-1.51-8.33.75-15.7,6.07-22.13,3.72-4.51,8.64-6.93,14.49-6.54A48,48,0,0,1,184,24.94c7.33,2.39,11.47,8.5,11.25,17.08-.23,8.92-1.6,17.7-7.24,25.17a2.85,2.85,0,0,0-.19,2.3c3.24,9.18,6.52,18.35,9.91,27.48a3.31,3.31,0,0,0,2.08,1.85c6.54,1.17,13.11,2.17,20.06,3.28.33-1.83.69-3.88,1.06-5.92.53-2.88,2.43-4.56,4.86-4.33,2.59.25,4.18,2.37,3.9,5.42a36.35,36.35,0,0,1-.91,6c-.49,1.85.14,2.72,1.66,3.71,5.67,3.67,7.32,9.83,4.46,16a9.44,9.44,0,0,1-7.64,5.52c-2,.29-2.56,1.31-2.84,3.17q-6.78,44.51-13.68,89c-.59,3.81-1.12,7.63-1.79,11.43-.55,3.14-2.51,4.77-5,4.41-2.7-.4-4.21-2.66-3.73-5.85q3.52-23,7.1-46.06,4.17-26.9,8.33-53.78a9.35,9.35,0,0,0,0-1.4c-11.89-1.36-24.27,1.1-35.27-5.35-1.54,6-3.21,12.23-4.66,18.48-.23,1,.39,2.23.84,3.27,5.43,12.68,11.22,25.31,13.84,38.9,2.31,12,3.54,24.24,5,36.41.66,5.54.64,11.15,1.07,16.72a3.18,3.18,0,0,0,1.5,2c2.07,1.22,4.38,2,6.38,3.36,3.21,2.1,5.07,5.1,4.44,9.08s-3.45,5.61-6.91,6.54c-7.9,2.12-15.92,1.18-23.91.81-.77,0-1.54-.2-2.31-.26-7.67-.61-9.67-2.22-10.27-10-.77-10-1.14-20-1.42-30.07-.27-9.83.65-19.73-1.57-29.44-1.16-5.1-2.5-10.16-3.76-15.23Zm-36.69,45.78c3.47-3.22,6.63-6.19,9.83-9.11a42.4,42.4,0,0,0,13.12-23.15,77.19,77.19,0,0,1,7.4-19.35c3.72-7.08,10.49-6.77,14.21.3a59.58,59.58,0,0,1,4.13,11.07c3.69,12.58,3.78,25.52,3.49,38.48,0,1.19,0,2.39,0,3.81l13.28-1.32c-1.24-25.28-6.41-49.21-18.05-71.72-11,3.41-21.57.83-32.41-3a37.28,37.28,0,0,0-1.09,3.67c-2.34,12.52-4.7,25-6.94,37.56-1.23,7-3.68,13.09-9.47,17.62-2.38,1.87-4.31,4.32-6.54,6.6Zm41.64-152c-1.62,7.54-3,15.2-4.92,22.74-3.5,13.88-8.39,27.11-19.25,37.22.14,3.14.28,6.28.47,9.42,0,.14.48.28.74.38,7.4,2.69,14.86,4.77,22.9,3.52,3.32-.51,5.07-2,6-5.38,5.86-20.84,5.48-42,3.27-63.19A3,3,0,0,0,170.08,71C167.52,70,164.85,69.24,162.27,68.4Zm24.66-25.14c-.5-5.47-1.77-8.51-5.38-9.73a28.92,28.92,0,0,0-9.28-1.78,11.23,11.23,0,0,0-6.53,2.44C160.66,38.36,159,46.46,161.31,53c2.18,6.11,7,9.36,14.31,9.73,4.25.21,6.24-.75,7.53-4.76C184.7,53.19,185.69,48.19,186.93,43.26ZM152.41,72c-12.15,5-23.56,10-33.12,18.19a19.08,19.08,0,0,0-5.47,7.29c-2.86,7.76-1,15.51.94,23.41,1.19-.63,2-1,2.88-1.52,2.51-1.43,6.22-2.33,7.18-4.46s-.84-5.67-1-8.61c-.08-1.67.22-3.88,1.26-5,5.23-5.55,10.71-10.87,16.21-16.16,2.26-2.17,4.76-1.86,6.8.5.32.36.65.71,1.28,1.39C150.42,81.85,151.36,77.18,152.41,72Zm52.71,36.63c-3.22-.4-6.16-1-9.11-1.07s-4.74-1.59-5.67-4.39c-1.34-4-2.81-8-4.25-12-1.52-4.22-3.07-8.43-4.61-12.65a5.78,5.78,0,0,0-.3,2.58q.25,13.43.51,26.86c0,1.59-.41,3.72.42,4.67,2,2.26,4.36,4.91,7.06,5.68,4.54,1.29,9.46,1.23,14.45,1.77C204.14,116.1,204.6,112.59,205.12,108.59ZM105.13,218c-4.09,5.86-8,11.32-11.72,16.91a4,4,0,0,0-.43,3.45c3.75,6.25,8.88,11.25,15,16.06,0-1.12.05-1.66,0-2.19-.38-3.55-.78-7.1-1.18-10.65a10.7,10.7,0,0,1,3.85-10.07c1.53-1.27,3-2.55,4.66-3.91Zm67.76,13.38c.27,4.59.36,8.91.8,13.21.58,5.7.7,5.71,6.51,6.23a55.83,55.83,0,0,0,5.78.33c4.14,0,8.29-.17,12.43-.27l.09-.88c-2-.93-4-1.82-5.93-2.8-4.47-2.24-5.55-4.31-5.23-9.21.16-2.56,0-5.14,0-8ZM148,91.76l-.69-.55c-4.56,4.68-9.14,9.34-13.68,14a2.06,2.06,0,0,0-.6,1.49c.73,3.69,1.56,7.36,2.48,11.55C142.06,110.09,145.42,101.11,148,91.76Zm-30.72,38c2,4.38,3.72,8.54,5.7,12.58,1.41,2.86,3,2.88,4.76.2a4.93,4.93,0,0,0,1-2.63c-.17-5.12-.5-10.24-.82-16ZM214,109.86l-1.32,10.23c3.94,0,7.51.16,11-.09a4.56,4.56,0,0,0,3.26-1.93c.94-1.87-.29-3.36-2.09-4.08C221.43,112.6,217.92,111.34,214,109.86ZM130.18,72.15l16.21-7.55C139.23,61.08,130.33,65.38,130.18,72.15Z"/></svg>