<svg xmlns="http://www.w3.org/2000/svg" viewBox="0 0 288 288"><defs><style>.a{fill:#cf9d6c;}</style></defs><path class="a" d="M205.6,197.93c-.43,12.56-9.13,21.38-21.69,22A22.23,22.23,0,0,1,172.56,217c-7.36-3.81-14.69-7.73-21.81-12-9.9-5.88-19.53-12.23-29.44-18.09a82.72,82.72,0,0,0-12-5.4c-8.2-3.21-18.18,2-20.88,11.09a17,17,0,0,0,14.94,21.83,17.53,17.53,0,0,0,9.3-2.17c6.2-3.09,12.29-6.43,18.42-9.67.55-.29,1.05-.67,1.61-.94a2.68,2.68,0,0,1,2.81,4.56c-8,4.94-16.18,9.65-25.19,12.72-9.57,3.25-25.19-1.94-27.61-17.8-1.88-12.34,5.45-22.87,17.43-25.53,5.58-1.23,10.6.23,15.57,2.49,10.52,4.78,20.28,10.92,29.94,17.19,8.43,5.47,16.79,11.06,25.94,15.32,2.35,1.09,4.79,2,7.2,2.95,7.26,2.9,18.45-1.33,20.89-11.69,2.34-9.95-3.49-19.23-13.08-21a17,17,0,0,0-10.68,1.67c-5.64,2.72-11.17,5.67-16.72,8.55-1.05.55-2,1.22-3.06,1.82-2,1.17-3.53,1-4.43-.49s-.3-3,1.64-4.14c7.54-4.56,15.19-8.86,23.51-11.94C188.29,172.14,205.65,179.48,205.6,197.93Z"/><path class="a" d="M143.94,162a40.59,40.59,0,0,1-12.37,7.47c-10.55,3.89-21.13,3.47-31.73.18-1.71-.53-2.3-1.72-2.29-3.48.12-21.59,16.41-41,37.61-44.88,25.65-4.65,49.39,11.44,54.44,37a80.43,80.43,0,0,1,.85,8.08,2.9,2.9,0,0,1-2.28,3.3c-15.78,4.76-30.56,3.54-43.72-7.35A4,4,0,0,0,143.94,162Zm40.94,3.06A40.92,40.92,0,0,0,143.47,126c-23.13.3-39.89,19.36-40.31,38.94a2.55,2.55,0,0,0,.43.23c14,3.52,26.91,2,37.91-8.28,1.89-1.76,3.09-1.85,4.81-.2,9.39,9,20.69,11.44,33.21,9.56C181.34,165.94,183.13,165.46,184.88,165.08Z"/><path class="a" d="M119.45,92.53a24.55,24.55,0,1,1,24.15,24.65A24.55,24.55,0,0,1,119.45,92.53Zm43.68.11a19.13,19.13,0,1,0-19.25,19.12A19.11,19.11,0,0,0,163.13,92.64Z"/></svg>